<svg xmlns="http://www.w3.org/2000/svg" width="63.8" height="45.9" viewBox="0 0 63.8 45.9"><g id="Layer_2" data-name="Layer 2"><g id="Layer_1-2" data-name="Layer 1"><polygon points="54.9 0 45.8 11.9 53.4 11.9 62.5 0 54.9 0" fill="#5e5da9"/><path d="M59.4,21.4a18,18,0,0,0-7.6-2.7L45,27.4h.2a7,7,0,0,1,3.7.8,2.7,2.7,0,0,1,1.2,2.5,2.9,2.9,0,0,1-1.2,2.6,7,7,0,0,1-3.7.8h-25V45.9H44.1a37,37,0,0,0,8.9-1,17.1,17.1,0,0,0,6.2-3,10.8,10.8,0,0,0,3.5-4.7,18.1,18.1,0,0,0,1.1-6.3C63.8,26.7,62.3,23.5,59.4,21.4Z" fill="#9e9de0"/><path d="M14.5,33.2A22.4,22.4,0,0,1,2.3,29.8H2l-.2-.2c0-.1-.1-.1-.1-.2V45.9H15.2V33.2Z" fill="#5e5da9"/><path d="M17.4,18.5H44.3l-6.7,8.7H14.1s-5.4.3-9.5-2.4a13.1,13.1,0,0,1-3.5-4.6A15.3,15.3,0,0,1,0,15.4V12.9A14.7,14.7,0,0,1,1.2,7.7a13.2,13.2,0,0,1,4-5.1l.3-.2A11.6,11.6,0,0,1,12.7,0H47.3L38.2,11.9H17.4a3.3,3.3,0,0,0-2.3,5.6A2.9,2.9,0,0,0,17.4,18.5Z" fill="#5e5da9"/></g></g></svg>