<?xml version="1.0" encoding="UTF-8"?>
<!DOCTYPE svg PUBLIC "-//W3C//DTD SVG 1.1//EN" "http://www.w3.org/Graphics/SVG/1.1/DTD/svg11.dtd">
<svg version="1.1" xmlns="http://www.w3.org/2000/svg" xmlns:xlink="http://www.w3.org/1999/xlink" x="0" y="0" width="1461.25" height="708.75" viewBox="0, 0, 1461.25, 708.75">
  <g id="Layer_1">
    <g>
      <path d="M1425.291,433.545 C1410.927,439.009 1399.812,442.848 1382.619,441.231 C1369.675,449.721 1387.268,462.666 1378.772,474.193 C1370.683,492.395 1350.865,498.662 1333.072,497.456 C1336.91,515.65 1348.034,533.247 1353.496,551.851 C1366.237,585.425 1381.806,617.984 1396.17,650.945 C1397.178,661.667 1395.358,667.934 1390.305,676.227 C1377.968,683.102 1368.263,678.86 1353.496,680.075 C1270.786,666.925 1191.511,644.883 1111.828,624.654 C1078.663,619.806 1040.642,620.011 1010.709,631.536 C974.106,658.023 937.505,684.315 889.369,682.904 C803.219,686.341 715.856,684.118 636.991,661.667 C607.87,666.72 577.33,675.013 545.782,677.04 C518.078,679.263 493.403,674.004 468.13,670.362 C431.323,698.876 392.293,660.658 348.808,673.192 C320.088,677.442 288.546,686.137 259.417,677.04 C246.072,679.058 228.682,682.495 215.737,674.21 C201.176,675.826 184.187,680.075 172.055,670.362 C165.583,663.086 158.307,655.195 156.485,644.07 C120.08,624.055 81.862,595.737 57.588,558.733 C4.408,497.045 4.809,393.507 42.018,325.759 C72.559,266.499 138.282,221.603 177.92,167.406 C205.629,134.241 208.658,87.121 189.65,49.101 C183.99,33.325 173.474,19.98 159.52,10.276 C161.136,7.035 164.573,7.642 167.206,10.276 C217.967,51.929 247.892,119.885 224.431,185.002 C202.996,242.235 160.734,288.345 133.228,343.149 C115.23,381.375 115.025,434.761 142.932,467.526 C176.704,499.271 224.028,501.699 268.12,510.198 C308.158,513.233 350.225,509.993 386.623,498.467 C391.879,456.001 390.058,408.265 407.047,369.441 C418.58,357.307 440.418,360.343 456.595,362.565 C503.918,373.279 545.582,400.382 596.343,400.382 C661.057,317.867 783.613,316.252 877.848,341.328 C911.824,350.024 944.383,363.172 974.923,380.161 C983.619,374.699 985.234,362.763 991.305,354.879 C1005.864,336.07 1026.488,322.117 1050.557,329.597 C1064.715,335.872 1074.419,346.586 1079.677,361.549 L1091.408,359.737 C1089.39,349.014 1113.859,349.827 1100.102,338.293 C1094.041,317.26 1094.442,288.345 1109.814,270.346 C1125.993,251.742 1148.238,241.423 1172.913,249.109 C1181.807,252.143 1189.894,257.198 1197.178,264.481 C1202.838,261.652 1208.096,256.393 1212.748,252.956 C1229.943,236.574 1262.295,238.798 1282.525,247.09 C1308.611,260.642 1316.492,288.549 1317.511,316.046 C1323.777,316.046 1331.053,308.77 1338.945,307.35 C1358.559,300.878 1382.021,304.521 1395.16,320.901 C1402.239,311.6 1413.569,306.548 1425.299,309.173 C1433.592,311.6 1438.645,320.706 1441.877,327.579 C1445.726,346.389 1437.834,363.37 1429.138,377.127 C1436.014,377.931 1443.093,381.982 1445.726,388.857 C1451.992,407.461 1440.869,424.041 1425.299,433.547" fill="#000000"/>
      <path d="M1414.56,431.529 C1406.874,433.753 1397.777,435.574 1389.286,433.547 C1399.394,420.603 1404.856,405.846 1409.713,390.678 C1416.784,387.643 1427.301,380.358 1434.987,385.823 C1440.852,389.258 1440.646,395.123 1441.86,400.382 C1440.048,413.729 1427.71,427.888 1414.56,431.529" fill="#00A650"/>
      <path d="M1424.283,376.121 C1420.436,377.328 1415.99,377.328 1412.75,380.165 C1414.169,363.176 1411.946,341.332 1400.011,326.771 C1401.019,320.71 1408.51,319.496 1411.742,316.05 C1419.634,312.211 1427.311,318.28 1432.166,322.728 C1442.479,340.118 1434.193,361.355 1424.283,376.121" fill="#00A650"/>
      <path d="M1371.898,443.255 C1362.595,435.578 1346.444,430.345 1335.321,436.004 C1326.83,438.835 1322.557,450.54 1318.512,457.817 C1263.503,457.013 1204.046,458.021 1160.365,490.785 C1125.174,511.612 1084.322,528.199 1041.854,514.041 C1044.078,502.113 1054.192,493.616 1057.423,482.089 C1079.671,484.107 1105.766,483.305 1126.387,475.215 C1137.314,477.84 1148.839,478.848 1159.355,474.199 C1175.131,459.638 1198.386,459.44 1217.599,450.941 C1243.282,447.506 1265.323,430.319 1289.392,419.803 C1303.55,423.847 1316.085,431.329 1330.243,435.372 L1332.064,433.551 C1324.174,423.034 1315.272,414.544 1310.826,403.421 C1327.003,390.075 1338.332,374.703 1350.464,359.741 L1358.356,362.569 C1359.364,360.749 1360.579,359.134 1360.168,356.704 C1353.704,353.669 1345.411,346.393 1338.939,351.849 C1337.929,355.286 1341.974,355.089 1343.794,356.704 C1305.971,423.24 1229.731,443.667 1162.186,461.664 C1160.569,445.282 1165.828,432.944 1161.176,417.982 L1159.355,417.982 C1152.474,434.765 1142.973,450.139 1133.065,465.503 C1078.26,490.579 1016.572,467.733 970.061,440.229 C960.758,433.954 960.151,419.599 962.178,410.09 C966.418,397.753 976.13,387.647 987.451,380.969 C999.182,378.951 1014.348,376.721 1023.454,385.827 C1034.775,393.101 1029.722,412.921 1044.685,413.127 C1041.657,406.858 1038.622,400.789 1039.836,392.7 C1044.078,387.04 1050.55,380.772 1058.442,384.004 C1061.674,389.262 1069.564,388.861 1075.832,389.869 C1064.503,402.61 1060.263,422.224 1065.109,438.409 L1068.146,438.409 C1068.146,417.776 1072.394,393.101 1094.232,384.004 C1107.578,376.925 1121.942,384.21 1134.073,388.861 C1139.332,395.333 1145.403,400.789 1145.804,410.09 C1144.189,425.061 1138.725,436.586 1126.387,446.095 C1129.422,453.165 1133.672,445.282 1136.904,444.068 C1148.839,432.944 1156.321,419.196 1151.464,402.404 C1150.857,400.18 1148.839,397.352 1149.643,395.531 C1144.796,384.004 1132.047,378.542 1121.539,375.31 C1106.57,371.666 1092.821,376.524 1081.697,385.014 C1074.412,386.228 1068.753,383.193 1063.289,380.165 C1068.753,363.579 1087.964,367.418 1102.122,365.606 C1134.279,366.811 1163.194,368.025 1187.468,388.861 L1190.299,385.014 C1166.434,362.366 1134.279,358.928 1101.114,358.722 C1126.994,337.69 1164.204,352.661 1191.307,360.749 C1204.858,368.435 1219.821,373.086 1232.158,384.004 C1233.775,381.576 1238.023,386.228 1237.016,380.969 L1226.293,371.265 C1241.862,376.721 1258.244,370.864 1268.967,360.749 L1267.957,359.741 C1261.279,363.98 1253.799,367.017 1245.709,368.435 C1254.406,363.579 1266.537,360.142 1270.983,351.036 L1268.967,349.018 C1257.843,358.527 1244.693,367.017 1229.124,367.418 C1242.469,365.606 1256.226,359.134 1263.102,346.189 C1264.315,341.332 1268.761,336.483 1267.144,331.628 C1277.054,323.736 1264.922,315.246 1266.136,306.346 C1260.468,291.178 1251.772,275.001 1235.997,269.342 C1216.589,267.521 1202.03,285.518 1193.325,300.481 C1193.128,288.553 1185.442,278.643 1175.737,271.36 C1169.463,266.305 1159.152,268.735 1151.464,269.342 C1128.414,277.019 1129.021,303.311 1117.496,318.889 C1116.881,323.736 1118.504,327.583 1122.343,330.618 L1124.369,341.332 L1110.818,342.145 C1100.301,323.335 1100.301,298.053 1110.818,279.046 C1118.298,265.495 1132.047,255.379 1146.617,252.96 C1164.408,249.925 1182.611,255.986 1193.325,269.342 C1194.745,274.796 1186.048,281.474 1193.325,283.901 C1200.814,265.289 1217.794,253.361 1237.016,248.104 C1261.075,243.453 1284.536,249.522 1298.088,268.529 C1308.399,282.484 1311.229,302.095 1306.782,319.897 C1307.185,329.404 1294.444,336.073 1299.096,345.179 C1315.684,324.343 1340.76,305.336 1370.891,312.211 C1392.325,317.264 1403.449,340.118 1405.876,359.741 C1406.885,392.7 1392.529,419.196 1371.898,443.255" fill="#40BB6A"/>
      <path d="M1379.574,670.368 C1348.838,674.01 1320.932,664.708 1292.212,659.655 C1204.644,647.514 1125.369,598.173 1032.148,616.983 C1030.728,617.385 1029.317,618.197 1027.293,617.992 C1033.765,591.299 1061.672,587.861 1081.695,575.114 C1139.33,543.368 1196.162,507.775 1249.546,467.531 L1260.269,467.531 C1222.452,504.741 1174.522,528.809 1134.071,561.571 L1136.089,563.589 C1152.274,550.644 1179.78,547.814 1198.18,557.724 C1202.428,565.41 1209.705,572.087 1206.874,583.006 C1243.681,599.182 1282.31,611.519 1321.341,622.849 C1324.172,624.662 1325.787,628.509 1329.224,628.509 C1329.224,619.609 1324.375,610.101 1323.368,600.397 L1286.559,466.522 L1315.682,465.505 C1317.502,468.745 1314.869,470.764 1318.51,472.378 C1321.948,465.104 1323.162,457.015 1329.224,450.944 C1335.697,445.685 1342.776,441.445 1351.472,441.24 C1361.791,440.839 1369.878,448.516 1374.727,456.809 C1377.564,464.495 1374.53,472.378 1369.878,478.048 C1359.765,489.367 1345.606,493.215 1331.045,490.787 C1320.94,489.367 1316.083,479.056 1308.806,473.191 C1301.924,476.833 1309.61,482.698 1312.645,484.922 L1326.196,498.473 C1346.623,548.02 1360.979,600.193 1387.474,647.113 C1391.716,656.014 1388.688,666.53 1379.582,670.369" fill="#00A650"/>
      <path d="M1305.969,407.253 L1321.341,426.67 L1296.265,415.947 L1305.969,407.253" fill="#FFFFFF"/>
      <path d="M1314.663,613.135 C1280.891,602.618 1246.921,592.914 1214.56,579.157 C1214.56,566.417 1207.284,555.295 1196.162,549.026 C1187.867,543.563 1174.923,547.008 1166.023,545.991 C1205.661,522.332 1242.467,493.615 1278.669,465.502 C1291.007,513.235 1305.362,560.355 1315.682,609.09 L1314.663,613.134" fill="#FFFFFF"/>
      <path d="M1265.124,323.736 C1246.117,308.568 1222.252,305.132 1197.176,304.328 C1201.015,291.581 1213.155,280.26 1225.289,275.207 C1233.376,271.564 1240.859,277.225 1245.714,282.08 C1256.23,290.367 1260.069,302.507 1261.283,313.024 C1252.186,310.193 1243.687,302.908 1233.983,304.328 C1243.286,310.39 1255.624,312.818 1265.124,319.897 L1265.124,323.736" fill="#FFF540"/>
      <path d="M1239.844,358.722 C1226.293,362.365 1209.707,361.355 1199.19,351.849 C1191.513,340.725 1188.673,324.343 1194.341,311.201 C1219.008,310.193 1244.693,312.612 1263.102,329.601 C1261.886,341.733 1251.978,353.464 1239.844,358.722" fill="#FFFFFF"/>
      <path d="M1183.623,508.175 L1173.919,492.605 C1193.737,480.473 1215.377,472.787 1238.83,469.349 C1219.422,482.695 1202.433,494.623 1183.623,508.174" fill="#DDD537"/>
      <path d="M1215.572,339.314 C1211.937,345.786 1205.465,345.179 1199.19,345.179 C1193.932,340.725 1191.914,334.055 1194.341,327.583 C1196.771,322.325 1200.61,322.325 1204.858,319.897 C1211.937,318.683 1213.151,325.156 1216.589,328.593 C1217.599,331.628 1214.562,335.269 1215.572,339.314" fill="#000000"/>
      <path d="M1204.046,330.618 C1200.814,331.825 1201.217,327.986 1200.003,326.77 C1201.011,323.942 1204.858,323.942 1205.868,326.77 C1206.679,328.387 1204.858,329.404 1204.046,330.618" fill="#FFFFFF"/>
      <path d="M1187.468,351.036 C1186.655,351.445 1187.262,347.598 1189.486,348.01 L1190.299,346.991 L1194.341,353.875 L1187.468,351.036" fill="#00A650"/>
      <path d="M1186.452,322.728 C1183.014,319.085 1176.745,317.264 1172.907,320.905 C1166.838,324.343 1165.221,332.029 1167.041,336.483 C1167.846,340.931 1172.703,342.145 1175.737,345.179 L1184.629,345.179 C1183.621,349.831 1179.175,348.814 1175.737,348.01 C1161.176,344.366 1147.215,339.108 1130.235,341.332 C1129.422,336.68 1127.601,332.842 1128.208,327.583 C1145.403,317.47 1164.204,310.594 1184.629,308.167 L1189.486,310.193 C1186.452,313.631 1187.468,318.683 1186.452,322.728" fill="#FFFFFF"/>
      <path d="M1186.452,303.311 C1163.597,304.328 1143.377,311.201 1125.38,323.736 C1123.557,322.325 1124.164,317.871 1126.388,316.05 C1131.646,309.784 1139.733,307.961 1144.796,303.311 C1139.332,302.096 1134.073,306.552 1129.218,309.177 C1130.235,298.463 1136.904,283.492 1149.643,278.233 C1155.92,274.6 1165.221,272.574 1171.89,276.215 C1181.603,281.474 1188.879,291.178 1186.452,303.311" fill="#FFF540"/>
      <path d="M1092.42,563.587 C1090.198,552.062 1089.188,540.332 1085.547,529.609 C1118.309,529.413 1143.387,509.996 1170.08,494.623 C1174.534,499.48 1176.962,505.14 1180.597,510.202 C1151.279,528.199 1122.96,548.419 1092.42,563.588" fill="#DDD537"/>
      <path d="M1175.738,330.618 C1173.31,329.601 1173.31,326.164 1174.925,324.754 C1176.542,323.539 1178.568,323.736 1179.782,325.762 C1180.183,328.19 1179.371,332.235 1175.738,330.618" fill="#FFFFFF"/>
      <path d="M1156.321,466.519 C1154.294,470.761 1148.429,471.368 1143.778,472.376 C1141.759,471.171 1139.332,470.761 1136.904,470.358 L1158.339,429.507 L1156.321,466.519" fill="#FFFFFF"/>
      <path d="M1127.2,428.696 C1119.915,433.954 1113.246,440.229 1102.926,438.409 C1100.301,441.237 1103.533,444.675 1104.953,447.103 C1099.694,445.076 1093.222,441.237 1091.402,435.372 C1088.974,424.045 1090.589,411.911 1098.08,403.421 C1103.336,399.172 1110.211,396.138 1117.496,395.531 C1125.174,395.128 1128.414,403.217 1132.047,408.269 C1131.852,415.554 1133.261,423.438 1127.2,428.696" fill="#000000"/>
      <path d="M1044.687,588.869 C1049.141,580.781 1054.194,572.086 1054.4,563.588 L1053.587,563.588 C1044.49,592.101 1015.976,603.431 995.345,623.652 C991.908,627.294 987.05,627.901 983.615,631.543 C988.061,565.811 982.195,505.551 966.223,447.104 L977.75,454.79 C981.185,469.959 989.274,483.707 1000.201,494.625 C998.987,504.338 994.739,514.444 995.345,523.746 C1002.013,520.309 1005.05,512.024 1009.905,506.355 C1016.574,507.167 1022.849,515.051 1030.126,517.881 C1030.938,522.532 1028.511,528.2 1032.152,531.432 L1038.017,520.916 C1049.945,528.602 1064.505,529.816 1079.673,529.611 C1084.528,540.735 1088.779,552.062 1088.369,565.41 L1044.687,588.871" fill="#FFF540"/>
      <path d="M1058.442,378.139 C1047.514,374.907 1039.632,383.397 1034.168,388.861 C1028.712,378.542 1018.393,372.273 1007.876,370.453 L988.468,372.273 C997.164,353.875 1009.296,339.511 1029.319,333.449 C1045.495,331.628 1059.244,338.904 1068.146,351.036 L1073.001,360.749 C1065.922,363.374 1059.656,369.846 1058.442,378.139" fill="#00A650"/>
      <path d="M1035.993,511.211 L1035.993,477.233 L1051.571,481.081 C1046.51,490.99 1041.054,501.096 1035.993,511.211" fill="#FFFFFF"/>
      <path d="M1016.568,499.481 C1020.415,492.402 1023.853,485.126 1030.119,479.055 L1030.119,507.167 L1016.568,499.481" fill="#00A650"/>
      <path d="M943.761,664.503 L920.506,669.359 C956.099,654.799 994.728,633.159 1027.286,604.234 C1006.654,633.157 973.694,649.737 943.761,664.502" fill="#00A650"/>
      <path d="M1011.717,468.342 L1026.278,473.197 L1002.004,510.21 L1011.717,468.342" fill="#FFFFFF"/>
      <path d="M1003.023,483.903 C995.944,478.038 991.693,467.521 987.445,458.621 L1006.862,465.494 C1006.255,471.769 1003.22,477.431 1003.023,483.903" fill="#00A650"/>
      <path d="M979.774,628.507 C978.558,630.525 978.354,632.953 977.747,635.381 C950.447,651.156 923.754,668.35 891.393,672.189 C890.581,669.761 892.607,666.528 893.42,663.493 C906.765,590.084 890.581,523.745 880.671,453.772 C872.787,429.106 866.315,401.396 852.566,380.969 C886.945,389.262 922.942,396.539 951.661,416.965 C950.044,428.089 957.321,435.578 960.357,445.076 C978.558,501.506 981.996,569.855 979.774,628.507" fill="#FFF540"/>
      <path d="M953.484,410.088 C882.905,373.487 787.855,357.506 703.122,379.147 C653.165,394.118 605.243,414.133 570.051,458.627 C602.404,374.905 685.929,332.233 772.89,333.446 C843.872,336.884 910.818,349.016 969.06,382.994 C962.793,391.69 954.5,399.571 953.49,410.088" fill="#40BB6A"/>
      <path d="M884.52,672.189 C847.508,676.635 807.673,672.189 769.045,672.189 C783.802,585.835 779.963,487.553 761.359,403.431 L751.655,377.141 C781.177,373.703 816.163,374.714 845.687,380.176 C881.887,431.544 883.1,499.286 890.385,563.598 C891.395,599.798 898.269,639.839 884.52,672.2" fill="#FFF540"/>
      <path d="M763.182,671.376 C726.169,672.188 692.798,667.332 659.438,656.816 C672.176,573.899 670.356,481.688 649.725,403.43 C680.06,390.485 711.413,380.781 745.792,378.148 C763.986,411.92 766.414,452.164 770.055,491.802 C773.699,550.455 777.136,614.965 763.182,671.386" fill="#FFF540"/>
      <path d="M654.57,654.799 C630.914,648.729 607.247,632.757 585.606,616.982 C552.441,576.328 561.538,504.739 577.92,458.63 C593.695,434.364 619.79,418.589 643.85,406.251 C658.409,449.53 660.034,494.426 663.266,542.153 C663.266,578.558 660.435,618.393 654.57,654.799" fill="#FFF540"/>
      <path d="M476.826,661.672 C480.467,655.807 485.119,650.754 484.709,643.068 C522.329,645.291 556.708,635.783 591.488,628.507 C601.807,638.818 612.316,642.863 623.44,650.952 C580.57,669.155 523.944,674.01 476.826,661.673" fill="#00A650"/>
      <path d="M559.314,461.664 C520.086,449.53 482.672,430.114 439.998,429.507 C433.732,441.641 436.151,457.414 434.133,471.368 C432.716,499.882 435.544,546.401 442.829,580.978 C452.533,608.286 492.983,624.66 472.96,656.815 C444.65,694.838 402.379,657.422 363.348,666.527 C326.344,667.938 289.735,684.73 254.552,667.331 C242.418,657.225 233.921,642.665 238.974,625.676 C245.65,609.901 263.042,599.384 280.841,600.394 C301.466,604.036 319.872,613.338 342.924,611.115 C359.108,610.098 373.668,603.626 383.775,589.672 C393.078,574.71 393.685,554.892 394.292,537.296 C394.292,488.152 397.121,437.597 406.022,390.683 C410.065,383.194 410.065,373.087 419.574,368.435 C482.261,364.393 529.79,402.207 589.451,408.27 C577.517,424.249 566.196,442.452 559.314,461.665" fill="#40BB6A"/>
      <path d="M514.836,635.381 C511.195,634.372 509.578,629.311 508.971,625.677 C497.036,588.057 490.564,549.634 496.224,507.166 C516.247,498.471 539.102,489.777 554.474,478.046 C553.26,490.579 546.788,501.908 550.626,515.05 C555.679,514.041 555.278,507.568 556.492,503.319 C560.339,491.998 559.929,478.046 568.222,469.35 C558.716,508.987 551.84,562.784 570.043,602.421 C563.571,595.342 555.08,589.272 553.661,579.969 L551.636,578.148 C545.975,582.799 553.661,586.843 553.661,591.7 L583.594,621.83 C561.349,627.9 539.102,633.765 514.836,635.381" fill="#FFF540"/>
      <path d="M440.013,516.067 L440.013,495.642 C469.136,485.32 499.47,478.046 525.351,460.654 C535.063,463.075 544.16,467.118 552.659,472.376 C517.467,492.605 480.054,507.167 440.013,516.066" fill="#40BB6A"/>
      <path d="M439.005,485.94 L442.031,437.409 C466.502,439.221 490.774,447.72 513.826,455.809 C491.177,471.788 465.698,480.075 439.005,485.94" fill="#FFFFFF"/>
      <path d="M485.709,637.407 C486.923,606.661 449.919,602.421 447.697,573.3 C444.053,556.713 443.241,539.118 441.019,521.726 L490.566,508.175 C487.53,551.25 493.395,597.359 507.956,636.39 L485.709,637.407" fill="#FFF540"/>
      <path d="M386.61,524.763 C360.121,528.807 322.304,543.367 300.254,519.906 L291.56,516.871 C323.314,519.094 356.685,514.246 386.61,506.355 L386.61,524.763" fill="#40BB6A"/>
      <path d="M383.783,567.435 C374.884,566.623 364.57,560.15 355.473,554.892 L334.236,539.323 C350.217,534.868 370.436,536.287 386.614,530.627 C387.024,543.367 386.211,555.704 383.783,567.435" fill="#FFF540"/>
      <path d="M362.355,599.386 C325.145,618.803 294.811,583.612 259.413,592.709 C249.102,590.084 235.757,589.067 224.427,593.718 C219.169,598.172 212.295,596.556 207.037,595.539 C194.092,596.958 179.13,598.779 169.22,610.099 C168.211,602.421 168.211,596.556 172.05,589.674 C178.727,580.781 188.432,571.881 199.35,574.309 C207.036,576.13 218.973,583.406 224.426,575.113 C210.677,572.086 195.305,566.016 188.636,551.858 C186.413,542.76 187.422,530.022 195.305,522.737 C223.621,500.49 263.055,518.898 293.39,525.772 C326.154,536.896 349.006,565.009 381.77,576.13 C379.744,585.834 371.254,595.342 362.354,599.386" fill="#00A650"/>
      <path d="M227.451,634.372 C225.227,651.156 237.155,660.458 246.868,671.376 C242.42,675.831 234.734,670.572 229.272,672.188 C217.138,667.742 204.597,658.44 201.159,645.086 C199.945,626.481 208.443,610.912 223.61,602.422 C231.699,598.575 241.002,594.334 250.706,597.566 C238.377,605.252 226.441,619.813 227.451,634.373" fill="#00A650"/>
      <path d="M175.079,265.503 C137.869,318.692 96.205,381.79 124.524,449.942 C138.272,483.508 176.9,498.275 209.861,506.362 C202.183,509.398 188.633,514.254 184.785,525.779 C147.372,511.219 107.734,478.456 101.268,436.391 C86.708,338.109 166.179,270.965 207.031,192.707 C226.046,144.169 220.181,79.66 189.64,38.397 C206.227,59.43 224.019,87.345 224.42,117.073 C228.465,139.115 226.447,163.38 218.761,183.003 C209.86,213.944 191.058,237.806 175.079,265.509" fill="#40BB6A"/>
      <path d="M213.904,145.162 C209.861,145.368 202.986,144.358 198.335,146.179 C205.62,120.693 209.459,99.462 203.191,72.36 C211.075,96.222 215.93,117.256 213.904,145.162" fill="#FFF540"/>
      <path d="M182.765,225.645 C170.83,218.975 157.483,215.735 142.922,215.941 C161.928,196.123 179.327,174.686 195.298,152.038 C201.163,151.628 207.028,148.396 212.894,151.021 C209.457,179.338 199.547,202.595 182.763,225.645" fill="#FFF540"/>
      <path d="M191.461,643.068 C192.273,653.38 200.764,660.057 206.022,668.35 C197.121,671.582 182.964,671.377 175.08,664.503 C168.001,658.638 164.359,651.558 164.359,643.068 C164.769,631.338 168.206,616.375 180.74,610.1 C190.043,607.27 197.327,599.182 209.057,602.422 C197.326,612.734 195.907,629.115 191.461,643.07" fill="#00A650"/>
      <path d="M159.51,597.565 C155.055,608.894 168.402,617.991 158.493,626.686 L157.484,633.364 C145.958,629.114 135.648,621.633 125.532,613.947 C124.113,578.755 142.923,549.634 169.214,524.762 L181.757,530.627 C177.106,543.161 181.15,556.919 189.64,566.417 C176.499,571.274 162.947,583.611 159.509,597.565" fill="#FFF540"/>
      <path d="M132.201,300.489 C115.623,291.793 98.839,283.303 76.994,286.938 L137.059,222.829 C151.619,217.776 166.786,223.035 178.92,229.713 C163.145,250.54 147.979,277.028 132.203,300.489" fill="#FFF540"/>
      <path d="M143.932,547.008 C131.603,566.417 118.249,587.252 119.666,610.098 C89.536,590.28 67.486,560.962 49.694,531.43 C50.301,522.735 56.774,516.673 60.416,509.183 C74.566,492.604 90.341,478.445 108.945,469.348 C121.282,490.783 144.342,509.386 164.357,520.913 C158.09,530.626 149.19,536.893 143.932,547.008" fill="#FFF540"/>
      <path d="M116.838,328.587 C108.946,344.967 103.893,362.359 99.242,380.159 C73.156,379.749 42.412,385.615 22.592,401.39 C29.064,362.153 46.053,326.97 70.121,294.609 C90.547,284.502 111.376,296.029 129.373,303.305 C125.739,312.205 121.088,320.292 116.838,328.587" fill="#FFF540"/>
      <path d="M106.115,464.499 C82.456,478.052 58.185,499.691 45.856,524.769 C29.064,492.612 13.7,453.172 21.582,409.292 C44.035,393.92 69.111,383.002 97.419,385.02 C93.375,410.703 93.375,440.842 106.114,464.499" fill="#FFF540"/>
      <path d="M469.497,607.654 C469.497,607.654 478.603,615.742 481.631,622.821 C484.665,629.893 485.698,637.406 485.698,637.406 L507.946,636.389 L498.823,605.965 L469.497,607.655" fill="#DDD200"/>
      <path d="M502.866,604.955 L511.291,635.29 C511.291,635.29 529.494,635.29 548.033,631.246 C558.426,628.974 583.584,621.829 583.584,621.829 L555.448,593.495 L502.866,604.955" fill="#DDD200"/>
      <path d="M552.426,579.001 C552.426,579.001 555.125,586.417 558.495,590.461 C561.859,594.506 570.045,602.422 570.045,602.422 L562.54,577.992 C562.54,577.992 564.894,583.045 559.169,582.036 C553.444,581.028 552.426,579.001 552.426,579.001" fill="#DDD200"/>
      <path d="M566.916,577.991 C566.916,577.991 566.58,582.036 571.969,594.168 C577.357,606.3 584.438,616.751 584.438,616.751 C584.438,616.751 607.022,635.963 617.135,641.017 C627.249,646.071 654.574,654.798 654.574,654.798 L659.94,612.708 C659.94,612.708 636.346,611.354 615.453,605.628 C594.56,599.903 585.455,597.204 580.394,593.16 C575.333,589.116 566.916,577.992 566.916,577.992" fill="#DDD200"/>
      <path d="M663.978,613.045 C663.978,613.045 662.632,628.885 661.96,634.618 C661.288,640.351 658.587,656.521 658.587,656.521 C658.587,656.521 695.665,666.972 710.161,668.998 C724.657,671.024 762.735,672.706 762.735,672.706 C762.735,672.706 770.83,638.326 770.83,629.893 C770.83,621.468 771.504,622.141 771.504,622.141 C771.504,622.141 727.009,619.45 717.232,618.769 C707.463,618.097 663.978,613.044 663.978,613.044" fill="#DDD200"/>
      <path d="M774.879,622.142 C774.879,622.142 772.852,644.389 772.18,648.096 L767.8,672.37 C767.8,672.37 813.639,675.06 827.117,675.06 C844.311,675.06 884.079,673.715 884.079,673.715 C884.079,673.715 889.814,657.202 891.158,648.769 C892.513,640.344 893.521,622.477 893.521,622.477 C893.521,622.477 859.816,626.185 834.196,625.848 C808.576,625.512 774.879,622.141 774.879,622.141" fill="#DDD200"/>
      <path d="M897.561,621.806 C897.561,621.806 895.879,641.017 895.534,646.078 C895.19,651.138 890.146,672.031 890.146,672.031 C890.146,672.031 907.675,673.713 937.331,658.209 C966.993,642.705 980.477,633.599 980.477,633.599 L980.477,591.131 C980.477,591.131 955.87,605.29 942.392,610.343 C928.914,615.396 897.561,621.803 897.561,621.803" fill="#DDD200"/>
      <path d="M984.186,588.435 L983.178,632.93 C983.178,632.93 999.018,622.315 1016.203,608.664 C1033.397,595.014 1036.932,590.289 1042.495,583.718 C1048.057,577.147 1054.389,563.588 1054.389,563.588 C1054.389,563.588 1052.944,571.758 1050.418,576.811 C1047.891,581.864 1044.676,588.87 1044.676,588.87 L1088.359,565.409 C1088.359,565.409 1088.062,555.458 1086.315,544.958 C1084.961,536.87 1081.254,529.791 1081.254,529.791 C1081.254,529.791 1044.857,554.056 1035.751,559.617" fill="#DDD200"/>
      <path d="M157.484,633.363 L158.493,626.686 C158.493,626.686 162.364,623.577 162.619,620.041 C162.873,616.498 158.575,603.102 158.575,603.102 C158.575,603.102 147.451,603.356 141.381,600.067 C135.311,596.777 127.477,590.207 127.477,590.207 C127.477,590.207 125.459,597.286 125.459,601.839 C125.459,606.383 124.95,613.717 124.95,613.717 C124.95,613.717 132.784,619.787 138.346,623.577 C143.907,627.367 157.484,633.363 157.484,633.363" fill="#DDD537"/>
      <path d="M49.694,531.43 C49.694,531.43 57.118,552.758 78.183,574.957 C97.058,594.841 119.666,610.098 119.666,610.098 C119.666,610.098 119.642,603.946 120.314,599.221 C120.987,594.496 123.35,586.752 123.35,586.752 C123.35,586.752 102.448,580.346 87.28,568.55" fill="#DDD537"/>
      <path d="M237.951,627.367 C237.951,627.367 232.896,639.499 239.975,651.13 C247.054,662.761 249.073,665.789 256.654,669.333 C264.241,672.869 278.901,674.895 288.506,675.395 C298.112,675.896 355.805,666.249 363.359,666.527 C370.912,666.806 374.459,663.771 387.099,666.298 C399.739,668.825 438.163,676.913 449.287,673.377 C460.41,669.833 465.973,667.307 475.579,653.148 C485.184,638.99 477.597,630.909 477.597,630.909 C477.597,630.909 472.034,646.577 449.287,653.656 C426.531,660.736 401.257,649.612 374.459,648.603 C347.661,647.594 321.884,659.021 283.962,659.727 C256.654,660.227 237.951,627.366 237.951,627.366" fill="#00A650"/>
      <path d="M1056.993,479.241 L1041.85,514.046 C1041.85,514.046 1069.125,520.699 1083.285,520.699 C1097.445,520.699 1124.743,514.629 1153.051,497.435 C1181.37,480.249 1194.51,471.152 1213.722,467.101 C1232.935,463.05 1318.508,457.823 1318.508,457.823 C1318.508,457.823 1325.13,443.213 1331.018,440.809 C1336.908,438.415 1350.231,432.722 1356.3,435.756 C1362.371,438.791 1371.894,443.262 1371.894,443.262 C1371.894,443.262 1394.724,422.615 1401.803,396.325 C1408.882,370.035 1404.839,362.953 1404.839,351.83 C1404.839,340.706 1397.76,331.609 1397.76,331.609 C1397.76,331.609 1398.768,381.156 1377.539,399.359 C1356.3,417.553 1332.036,430.704 1309.789,436.764 C1287.542,442.825 1235.97,449.914 1205.633,459.012 C1175.299,468.117 1144.964,488.338 1109.575,492.383 C1074.186,496.427 1056.993,494.409 1056.993,494.409 L1056.993,479.241" fill="#00A650"/>
      <path d="M1321.593,431.697 L1334.063,436.078 L1327.32,427.652" fill="#000000"/>
    </g>
  </g>
</svg>
