<svg xmlns="http://www.w3.org/2000/svg" width="200" height="155.9" viewBox="0 0 200 155.9"><g id="Layer_2" data-name="Layer 2"><g id="Layer_1-2" data-name="Layer 1"><path d="M67.5,29.3a50.5,50.5,0,0,1,6.6-10.4c21.1-25.8,62.6-23.6,87-2.8,27,23.1,24.5,62,24,68.7-1.9,23.1-13.9,60.8-41.6,68.5-12.8,3.5-25.1-.5-35.7-7.9a22.6,22.6,0,0,0-27.7,1.5,38.2,38.2,0,0,1-10.2,6.4,36.1,36.1,0,0,1-19.4,2.1C24.8,151.9-.2,122.7,0,95.4.3,64,33.8,40,67.5,29.3Z" fill="#ecf3fe"/><path d="M162.5,70.7v61.9h0v.2h0c-.1,0-.1.1-.1.2h-.1l-.2.3h-.1c0,.1-.1.1-.1.2h-.1l-.2.2c0,.1-.1.1-.1.2h-1.1l-.7.3H47.8l-.7-.3h-.3a4.3,4.3,0,0,1-1-.9l-.2-.2a3.6,3.6,0,0,1-.4-.9c-.1,0-.1-.1-.1-.2v-.2a.4.4,0,0,0-.1-.3v-.2h0v-.2h-.1v-62a4,4,0,0,1,.3-1.5,4.3,4.3,0,0,1,1.3-1.9h.1l.2-.2a4.4,4.4,0,0,1,2.5-.8H158.9c0,.1.1.1.2.1h.7l.3.2c.1,0,.2,0,.2.1l.4.2h0l.2.2h.2v.2l.4.3v.2l.5.8a.4.4,0,0,0,.1.3h0V70h0v.6Z" fill="#dfe5ea"/><path d="M162.3,69.2H45.1a4.3,4.3,0,0,1,1.3-1.9h.1l.2-.2L101,25.9a4.5,4.5,0,0,1,5.4,0l54.3,41.2h0l.2.2h.2v.2l.4.3v.2l.5.8a.4.4,0,0,0,.1.3Z" fill="#5b97ef"/><path d="M102.9,32.9h0A51.1,51.1,0,0,1,154.1,84v49.5a0,0,0,0,1,0,0H51.8a0,0,0,0,1,0,0V84a51.1,51.1,0,0,1,51.1-51.1Z" fill="#fff"/><rect x="63.5" y="50.5" width="79" height="4.64" rx="2.3" fill="#e4ecf9"/><rect x="63.5" y="60.4" width="79" height="4.64" rx="2.3" fill="#e4ecf9"/><rect x="63.5" y="70.3" width="79" height="4.64" rx="2.3" fill="#e4ecf9"/><rect x="63.5" y="80.2" width="79" height="4.64" rx="2.3" fill="#e4ecf9"/><rect x="63.5" y="90.2" width="79" height="4.64" rx="2.3" fill="#e4ecf9"/><path d="M103.7,103.2h0l-.6.5-53.6,33H47.8a4.4,4.4,0,0,1-1.8-1.2l-.2-.2-.3-.5c-.1,0-.1-.1-.1-.2s-.1-.1-.1-.2a3.8,3.8,0,0,1-.5-1.9V70.7a4,4,0,0,1,.3-1.5,4.3,4.3,0,0,1,1.3-1.9h.1l.2-.2a4.4,4.4,0,0,1,2.5-.8h1l4.7,2.9L98.3,96l1.7,1,3.1,1.9.6.5h0A3,3,0,0,1,103.7,103.2Z" fill="#3b82f4"/><path d="M162.5,70.7v61.9h0v.2h0c-.1,0-.1.1-.1.2h-.1l-.2.3h-.1c0,.1-.1.1-.1.2h-.1l-.2.2c0,.1-.1.1-.1.2h-1.1l-.7.3h-1.7l-53.6-33c-.3-.2-.5-.3-.6-.5h0a2.8,2.8,0,0,1,0-3.8h0a1,1,0,0,1,.6-.5l3.1-1.9,1.6-1,43.4-26.8,4.7-2.9h1.8c0,.1.1.1.2.1h.7l.3.2c.1,0,.2,0,.2.1l.4.2h0l.2.2h.2v.2l.4.3v.2l.5.8a.4.4,0,0,0,.1.3h0V70h0v.6Z" fill="#3b82f4"/><path d="M162.5,131.5v.6a4.4,4.4,0,0,1-4.4,4.6H49.2a4.5,4.5,0,0,1-4.4-4.6v-.6l56-36.9a5.3,5.3,0,0,1,5.7,0Z" fill="#474747" opacity="0.29"/><path d="M162.5,131.7v.6a4.3,4.3,0,0,1-4.4,4.4H49.2a4.4,4.4,0,0,1-4.4-4.4v-.6l56-35.3a5.3,5.3,0,0,1,5.7,0Z" fill="#5b97ef"/><rect x="63.5" y="40.6" width="36.6" height="4.64" rx="2.3" fill="#3b82f4"/><path d="M60,128.3h0l-3.9-.4a.7.7,0,1,1,.2-1.4,23.1,23.1,0,0,0,3.7.3.8.8,0,0,1,.7.8A.7.7,0,0,1,60,128.3Zm3.9-.1a.9.9,0,0,1-.8-.6.8.8,0,0,1,.7-.8l3.8-.3a.6.6,0,0,1,.8.6c.1.4-.2.7-.6.8l-3.9.3Zm-11.5-1h-.2l-3.8-1a.9.9,0,0,1-.4-.9.7.7,0,0,1,.9-.5l3.6,1a.8.8,0,0,1,.6.9A.8.8,0,0,1,52.4,127.2Zm19.1,0a.8.8,0,0,1-.7-.5.8.8,0,0,1,.5-.9l3.7-.9a.7.7,0,1,1,.4,1.3l-3.8,1Zm7.4-2.1a.7.7,0,0,1-.3-1.4l3.6-1.5c.3-.2.7,0,.9.4a.7.7,0,0,1-.3.9,23.9,23.9,0,0,1-3.7,1.5Zm-33.8-.3h-.3l-3.6-1.7a.9.9,0,0,1-.3-1,.8.8,0,0,1,1-.3,34,34,0,0,0,3.4,1.6.7.7,0,0,1,.4,1A.6.6,0,0,1,45.1,124.8Zm40.8-2.9a.8.8,0,0,1-.6-.4.7.7,0,0,1,.3-1,26.1,26.1,0,0,0,2.8-1.7.7.7,0,0,1,1,.3.5.5,0,0,1-.2.9l-2.9,1.8Zm-47.7-.6h-.4l-3.2-2.1a.8.8,0,0,1-.2-1.1.7.7,0,0,1,1-.1l3.2,2.1a.7.7,0,0,1,.2.9A.5.5,0,0,1,38.2,121.3Zm-6.3-4.5h-.4l-2.8-2.5-.2-.2a.9.9,0,0,1,0-1,1,1,0,0,1,.9-.1,22.5,22.5,0,0,0,3.6.6.8.8,0,0,1,.6.8.8.8,0,0,1-.8.7l-1.3-.2.9.8a.8.8,0,0,1,.1,1A.7.7,0,0,1,31.9,116.8Zm4.8-1.6a.8.8,0,0,1-.7-.8.7.7,0,0,1,.7-.7l3-.2h.8c.4-.1.7.2.8.6a.8.8,0,0,1-.6.8h-.8l-3.2.2Zm7.7-.9a.7.7,0,0,1-.7-.6.7.7,0,0,1,.5-.9,22.2,22.2,0,0,0,3.7-.9.7.7,0,0,1,.9.5.8.8,0,0,1-.5.9l-3.8,1Zm-19-1.1h-.3l-3.6-1.5a.8.8,0,0,1-.3-1,.7.7,0,0,1,.9-.3l3.5,1.4a.9.9,0,0,1,.5,1A.7.7,0,0,1,25.4,113.2ZM51.7,112a.7.7,0,0,1-.6-.5.6.6,0,0,1,.4-.9l3.3-1.7a.7.7,0,1,1,.8,1.2,20.2,20.2,0,0,1-3.6,1.8Zm-25.3-.5a.5.5,0,0,1-.5-.3,24.3,24.3,0,0,1-2.4-3.2.8.8,0,0,1,.2-1,.8.8,0,0,1,1,.2,22.6,22.6,0,0,0,2.3,3.1.8.8,0,0,1-.1,1Zm-8-1.6h-.3l-3.3-2.2a.8.8,0,0,1-.1-1,.7.7,0,0,1,1-.2l3.1,2.2a.7.7,0,0,1,.3,1A.9.9,0,0,1,18.4,109.9ZM58.3,108l-.5-.2a.8.8,0,0,1,.1-1.1,31.9,31.9,0,0,0,2.6-2.6.7.7,0,0,1,1-.1.8.8,0,0,1,.1,1,18.5,18.5,0,0,1-2.8,2.8C58.7,108,58.5,108,58.3,108Zm-45.9-2.8-.5-.2a24.4,24.4,0,0,1-2.7-2.9.7.7,0,0,1,.1-1,.8.8,0,0,1,1,.1,34.5,34.5,0,0,0,2.6,2.8.7.7,0,0,1,0,1Zm9.8-.2a.8.8,0,0,1-.6-.4,27.9,27.9,0,0,1-1.4-3.7.7.7,0,0,1,1.4-.4,30.4,30.4,0,0,0,1.3,3.5.6.6,0,0,1-.4.9Zm40.9-3h-.3a.8.8,0,0,1-.4-1,12,12,0,0,0,1.3-3.3v-.2a.7.7,0,0,1,1.4.4v.2a21.3,21.3,0,0,1-1.4,3.5A.5.5,0,0,1,63.1,102ZM7.4,99.3a.9.9,0,0,1-.6-.3,29,29,0,0,1-1.9-3.4.7.7,0,0,1,.3-1,.7.7,0,0,1,.9.3C6.7,96,7.3,97.1,8,98.2a.6.6,0,0,1-.2,1Zm12.9-1.7a.7.7,0,0,1-.7-.7,4.9,4.9,0,0,1-.1-1.2,26.4,26.4,0,0,1,.2-2.8.8.8,0,0,1,.8-.6.8.8,0,0,1,.7.8,11.4,11.4,0,0,0-.2,2.6v1.1a.8.8,0,0,1-.7.8Zm44.7-3h-.1a.7.7,0,0,1-.7-.7c0-.3.1-.6.1-.9a13.3,13.3,0,0,0-.3-2.8,1,1,0,0,1,.7-.9.8.8,0,0,1,.8.7c.1,1,.2,2,.2,3v.9A.8.8,0,0,1,65,94.6ZM3.9,92.4a.6.6,0,0,1-.6-.4,24,24,0,0,1-1.2-3.8.7.7,0,0,1,.5-.9.8.8,0,0,1,.9.6c.3,1.2.7,2.4,1.1,3.6a.6.6,0,0,1-.4.9ZM21.3,90h-.2a.6.6,0,0,1-.4-.9,23.9,23.9,0,0,1,1.5-3.7.8.8,0,0,1,1-.3.7.7,0,0,1,.3,1A25.2,25.2,0,0,0,22,89.5.8.8,0,0,1,21.3,90Zm42.6-3a.8.8,0,0,1-.7-.5,34.5,34.5,0,0,0-1.4-3.4.7.7,0,0,1,.3-1,.8.8,0,0,1,1,.3,23.9,23.9,0,0,1,1.5,3.7.7.7,0,0,1-.5.9ZM2.1,85a.9.9,0,0,1-.8-.6c-.1-1.3-.3-2.6-.3-3.9a.8.8,0,0,1,.7-.8.7.7,0,0,1,.7.7c.1,1.3.2,2.5.4,3.8a.8.8,0,0,1-.6.8Zm22.8-1.8h-.4a.7.7,0,0,1-.2-1A24.2,24.2,0,0,1,26.8,79a.8.8,0,0,1,1-.1.8.8,0,0,1,0,1.1,32.5,32.5,0,0,0-2.3,2.9Zm35.5-3-.6-.3a16.1,16.1,0,0,0-2.4-2.8.7.7,0,0,1,0-1,.8.8,0,0,1,1-.1L61,79a.9.9,0,0,1-.2,1.1ZM30.1,77.5l-.6-.2a.8.8,0,0,1,.1-1.1l3.2-2.3a.8.8,0,0,1,1,.2.7.7,0,0,1-.3,1l-3,2.2A.4.4,0,0,1,30.1,77.5ZM1.8,77.3H1.7a.8.8,0,0,1-.7-.8c.1-1.3.2-2.6.4-3.9a.9.9,0,0,1,.9-.6.9.9,0,0,1,.6.9,22.1,22.1,0,0,0-.4,3.7A.8.8,0,0,1,1.8,77.3Zm53.1-2.5h-.4a17.4,17.4,0,0,0-3.3-1.8.6.6,0,0,1-.3-.9c.1-.4.5-.5.9-.4a23.7,23.7,0,0,1,3.5,1.9.8.8,0,0,1,.2,1A.7.7,0,0,1,54.9,74.8ZM36.6,73.4a.8.8,0,0,1-.7-.4.7.7,0,0,1,.4-1A27.2,27.2,0,0,1,40,70.7a.8.8,0,0,1,.9.6c.1.4-.1.8-.5.8l-3.6,1.2Zm11.2-1.5h-.1a15.3,15.3,0,0,0-3-.3H44a.7.7,0,0,1,0-1.4h.7a18.4,18.4,0,0,1,3.3.3c.4,0,.6.4.5.8S48.2,71.9,47.8,71.9ZM3,69.7H2.8a.7.7,0,0,1-.5-.9,23.2,23.2,0,0,1,1.3-3.7.6.6,0,0,1,.9-.4.6.6,0,0,1,.4.9,25.3,25.3,0,0,0-1.2,3.6A.8.8,0,0,1,3,69.7Zm2.9-7.1H5.5a.8.8,0,0,1-.3-1l2-3.4a.8.8,0,0,1,1-.2c.4.3.5.7.2,1s-1.3,2.2-1.9,3.3A.8.8,0,0,1,5.9,62.6Zm4.2-6.4L9.7,56a.7.7,0,0,1-.1-1,35.8,35.8,0,0,1,2.6-2.9.7.7,0,0,1,1,1c-.8.9-1.7,1.8-2.5,2.8A.7.7,0,0,1,10.1,56.2Zm5.5-5.5-.6-.2a.8.8,0,0,1,.1-1,24.3,24.3,0,0,1,3.2-2.4.8.8,0,0,1,1,.2.8.8,0,0,1-.2,1,23.7,23.7,0,0,0-3,2.3ZM22,46.4a.8.8,0,0,1-.7-.4.7.7,0,0,1,.3-1l3.5-1.7a.8.8,0,0,1,1,.3.8.8,0,0,1-.4,1,35.9,35.9,0,0,0-3.4,1.7Zm7-3.2a.8.8,0,0,1-.7-.5.8.8,0,0,1,.4-.9l3.8-1.1a.7.7,0,0,1,.9.5.8.8,0,0,1-.6.9l-3.6,1.1Z" fill="#f4b545"/><polygon points="65 23.3 10.5 30.5 23.7 40.6 23.9 59 35.3 49.3 41.7 54.2 65 23.3" fill="#232323" opacity="0.1"/><polygon points="25.1 57.9 24.8 30.9 66.2 22.1 25.1 57.9" fill="#46c1aa"/><path d="M25,39.5,66.2,22.1,11.7,29.4Z" fill="#52d1bd"/><polygon points="29.5 42.9 25.1 57.9 44 41.9 29.5 42.9" fill="#3caf99"/><polygon points="29.5 42.9 42.9 53 66.2 22.1 29.5 42.9" fill="#52d1bd"/><rect x="122.1" y="73.3" width="51.4" height="22.36" rx="1.3" transform="translate(-5.1 9.5) rotate(-3.6)" fill="#232323" opacity="0.1"/><rect x="123.4" y="71.5" width="51.4" height="22.36" rx="1.3" transform="translate(-4.9 9.6) rotate(-3.6)" fill="#fff"/><rect x="146.6" y="74.5" width="23.3" height="2.05" rx="1" transform="translate(-4.5 10.2) rotate(-3.6)" fill="#3b82f4"/><rect x="146.9" y="79" width="23.3" height="2.05" rx="1" transform="matrix(1, -0.06, 0.06, 1, -4.76, 10.22)" fill="#ecf3fe"/><rect x="147.2" y="83.4" width="23.3" height="2.05" rx="1" transform="translate(-5 10.2) rotate(-3.6)" fill="#ecf3fe"/><rect x="147.5" y="87.9" width="23.3" height="2.05" rx="1" transform="translate(-5.3 10.3) rotate(-3.6)" fill="#ecf3fe"/><circle cx="134.9" cy="83.5" r="9.4" fill="#ecf3fe"/><path d="M139.9,89.3a9.1,9.1,0,0,1-1.6,1.1l-1,.4-1,.2-.9.2h-.9a7.8,7.8,0,0,1-3.7-1.3,4.5,4.5,0,0,1,2.4-2.3h3.9A4,4,0,0,1,139.9,89.3Z" fill="#727272"/><path d="M139.1,80l.3,5.1a2,2,0,0,1-1.9,2.1l-4.7.3a2,2,0,0,1-2.1-1.9l-.3-5c-.3-4.5,4.1-4.5,4.1-4.5a4.1,4.1,0,0,1,2.2.3,3.7,3.7,0,0,1,2.4,3.2Z" fill="#302f2f"/><path d="M136.5,86.5V88a1.3,1.3,0,0,1-1.3,1.2,1.2,1.2,0,0,1-1.4-1V86.7a1.4,1.4,0,0,1,.2-.7h.1l.3-.3H136l.2.2A1.1,1.1,0,0,1,136.5,86.5Z" fill="#f4b698"/><path d="M138.5,81.2v2.2a3.5,3.5,0,0,1-2.1,3.4v.6a2.1,2.1,0,0,1-1.2.3h-1.5V87a3.4,3.4,0,0,1-2.5-3.2l-.2-2.1a3.8,3.8,0,0,1,1-2.6,3,3,0,0,1,2.3-1.1h.3a3.1,3.1,0,0,1,2.3.6h0A3.7,3.7,0,0,1,138.5,81.2Z" opacity="0.28"/><path d="M138.4,80.7l.2,2.7a3.5,3.5,0,0,1-.5,2h0l-.3.4-.6.7-.7.3-1.2.3H135a2.5,2.5,0,0,1-1.2-.1,3.4,3.4,0,0,1-2.5-3.2l-.2-2.6V81a3.6,3.6,0,0,1,1.1-2.6l.3-.3a4,4,0,0,1,1.9-.7h.3a3.5,3.5,0,0,1,2.2.6,3,3,0,0,1,.8.8l.3.4A3.3,3.3,0,0,1,138.4,80.7Z" fill="#f4b698"/><path d="M139.9,82a1.3,1.3,0,0,1-1.3,1.5l-.2-2.8h.6A1.3,1.3,0,0,1,139.9,82Z" fill="#f4b698"/><path d="M139.4,82a1,1,0,0,1-.8,1V81.2A1,1,0,0,1,139.4,82Z" fill="#e29586"/><path d="M137.1,87.4h0l-.8,3.6-.9.2h-.9l-1.3-3.6h.8l1.3,1.2,1.1-1.3h.7Z" fill="#565656"/><path d="M131.1,81.2l.2,2.8a1.4,1.4,0,0,1-1.5-1.3,1.5,1.5,0,0,1,1-1.5h.3Z" fill="#f4b698"/><path d="M130.3,82.6a.9.9,0,0,0,1,.8l-.2-1.7A.9.9,0,0,0,130.3,82.6Z" fill="#e29586"/><path d="M138.3,90.4l-1,.4v-.3Z" fill="#565656"/><polygon points="135.3 88.8 136.4 89.4 137.1 87.4 135.3 88.8" fill="#363636" opacity="0.2"/><polygon points="137.1 87.4 136.3 89.4 135.3 88.8 136.4 87.4 136.5 87.3 137.1 87.4" fill="#eee"/><polygon points="133.2 87.6 134.3 89.6 135.3 88.8 133.2 87.6" fill="#363636" opacity="0.2"/><polygon points="135.3 88.8 134.3 89.5 133.2 87.6 133.8 87.4 134 87.6 135.3 88.8" fill="#eee"/><path d="M139.1,80c-2.6.3-2.5-2.1-2.3-3.3A4.1,4.1,0,0,1,139.1,80Z" fill="#302f2f"/><path d="M137.6,78c-.1.1-.9,1.8-2.5,1.9s-4.1,1.3-4.1,2.9-2.4-4.8,2.5-5.7S137.6,78,137.6,78Z" fill="#302f2f"/><rect x="124.2" y="54.4" width="51.4" height="22.36" rx="1.3" transform="translate(-11.2 37.2) rotate(-13.6)" fill="#232323" opacity="0.1"/><rect x="125.3" y="52.6" width="51.4" height="22.36" rx="11.2" transform="translate(-10.8 37.4) rotate(-13.6)" fill="#f4b545"/><circle cx="137.1" cy="67.2" r="9.3" fill="#ffdca4"/><path d="M139,75.4h-.2a7.7,7.7,0,0,1-4.5-.4,4.6,4.6,0,0,1,2.1-2.8h0l.6-.3h.5l1.6-.4h1.1a4.1,4.1,0,0,1,2.4.8,2.3,2.3,0,0,1,.7.7,8,8,0,0,1-3.7,2.4H139Z" fill="#f4b545"/><path d="M132.8,66.6s-1.7-5.1,1.1-5.9,3.8-1.8,4.5-1.7,2.4,4.7,2.5,5.6S132.8,66.6,132.8,66.6Z" fill="#e09f36"/><path d="M139.4,70.5l.4,1.5a1.3,1.3,0,0,1-1.1,1.4,1.3,1.3,0,0,1-1.6-.8l-.3-1.4a1.1,1.1,0,0,1,.1-.8h.1l.3-.3.5-.3h1.1a.1.1,0,0,0,.1.1C139.2,70.1,139.4,70.3,139.4,70.5Z" fill="#f4cb95"/><path d="M140.5,64.9,141,67a3.7,3.7,0,0,1-1.5,3.8v.6l-1.1.5H137v-.5a3.6,3.6,0,0,1-3.1-2.7l-.5-2.1a3.9,3.9,0,0,1,.5-2.8,3.6,3.6,0,0,1,2.1-1.5h.3a3.1,3.1,0,0,1,2.3.3h0A3.5,3.5,0,0,1,140.5,64.9Z" fill="#d8a471"/><path d="M140.3,64.4,141,67a4.4,4.4,0,0,1-.1,2v.3c0,.1-.1.2-.2.3a2.5,2.5,0,0,1-1.1,1.2,2.2,2.2,0,0,1-1.1.5h-1.5a3.6,3.6,0,0,1-3.1-2.7l-.7-2.8a3.9,3.9,0,0,1,.6-2.8l.3-.3a3.2,3.2,0,0,1,1.8-1h2.5A3.3,3.3,0,0,1,140.3,64.4Z" fill="#f4cb95"/><path d="M142.1,65.5a1.5,1.5,0,0,1-1.1,1.7l-.7-2.8h.6A1.5,1.5,0,0,1,142.1,65.5Z" fill="#edc28e"/><path d="M141.5,65.6a.7.7,0,0,1-.6,1l-.4-1.7A.9.9,0,0,1,141.5,65.6Z" fill="#d8a471"/><path d="M133.2,66.2l.6,2.7a1.5,1.5,0,0,1-1.7-1,1.5,1.5,0,0,1,.8-1.6h.3Z" fill="#edc28e"/><path d="M132.7,67.7a.8.8,0,0,0,1,.7l-.4-1.7A.7.7,0,0,0,132.7,67.7Z" fill="#d8a471"/><path d="M140.3,64.4,141,67a4.4,4.4,0,0,1-.1,2v.3c-.5-5.2-1.5-5.7-2.7-5.4s-2-1.2-2-1.2l1.9-.8h.3A3.3,3.3,0,0,1,140.3,64.4Z" fill="#e5b67f"/><path d="M140,73l.5.5-.9,1.7h-.3l.4-2.7h0v-.4h0l-.2-.7,1.1,1.1-.6.4Z" fill="#cc8e2b"/><path d="M139.1,75.3h.3V75l.5-1.7v-.5l.2-.4-.3-.5h0a2.5,2.5,0,0,1-.8,1.2l-.3.2h-.5a2.1,2.1,0,0,1-1-.6h-.1a.3.3,0,0,0-.1-.2v.7l.4.2v.5l1.1,1,.4.5h.1Z" fill="#fff"/><path d="M140.1,72.9l.4.6-1.1,1.8h-.1l.4-2.6h0V72h0l-.2-.7,1.1,1.2-.7.4Z" fill="#e09f36"/><path d="M139,75.4h-.2l-1.6-1.1.2-.7h-.8L137,72v.7h.1l.3.3h0l1.6,2.1Z" fill="#cc8e2b"/><polygon points="139 75.4 137.2 74.3 137.3 73.6 137.4 73.5 136.6 73.5 137 71.9 137 72 137.1 72.7 137.2 72.7 137.6 73.2 137.6 73.2 139.1 75.3 139.1 75.3 139 75.4 139 75.4 139 75.4" fill="#e09f36"/><path d="M138.1,61.3h-2.2l-1.4.5a6.1,6.1,0,0,0-1.4,1.3v.4l-.2.3v.6h.2v.3a2.7,2.7,0,0,1,.8-1.1,3.2,3.2,0,0,1,2.5-.4c1.5.7,3.8-.5,3.8-.5Z" fill="#e09f36"/><rect x="147.1" y="54" width="23.3" height="2.05" rx="1" transform="translate(-8.5 39) rotate(-13.6)" fill="#e29d2d"/><rect x="148.2" y="58.3" width="23.3" height="2.05" rx="1" transform="translate(-9.5 39.4) rotate(-13.6)" fill="#ffdca4"/><rect x="149.2" y="62.7" width="23.3" height="2.05" rx="1" transform="translate(-10.5 39.7) rotate(-13.6)" fill="#ffdca4"/><rect x="150.3" y="67" width="23.3" height="2.05" rx="1" transform="translate(-11.5 40.1) rotate(-13.6)" fill="#ffdca4"/><path d="M139.2,130.1h-1.1a.8.8,0,0,1-.7-.8.8.8,0,0,1,.8-.7,15.3,15.3,0,0,0,3.7-.1c.4,0,.8.2.8.6a.6.6,0,0,1-.6.8A14.6,14.6,0,0,1,139.2,130.1Zm-4.9-.5h-.1l-3.8-1.1a.7.7,0,0,1-.4-1,.7.7,0,0,1,.9-.4,24.7,24.7,0,0,0,3.6,1.1.8.8,0,0,1,.6.8A.8.8,0,0,1,134.3,129.6Zm11.5-.4a.8.8,0,0,1-.7-.5.7.7,0,0,1,.5-.9,25.3,25.3,0,0,0,3.6-1.2.8.8,0,0,1,.9.4.7.7,0,0,1-.4,1,26.5,26.5,0,0,1-3.7,1.2Zm-18.6-2.4h-.4a23.5,23.5,0,0,1-3.2-2.3.7.7,0,0,1-.1-1,.8.8,0,0,1,1-.1l3.1,2.2a.8.8,0,0,1,.2,1A.6.6,0,0,1,127.2,126.8Zm25.7-.4a.8.8,0,0,1-.6-.4.7.7,0,0,1,.3-1l3.2-2a.7.7,0,0,1,1,.2.8.8,0,0,1-.2,1l-3.3,2.1ZM121.2,122l-.5-.2-2.6-3a.8.8,0,0,1,.2-1,.7.7,0,0,1,1,.1l2.4,2.9a.7.7,0,0,1,0,1Zm38-.1a.5.5,0,0,1-.5-.3.7.7,0,0,1,0-1,34.4,34.4,0,0,0,2.7-2.7.7.7,0,0,1,1,1,23.7,23.7,0,0,1-2.7,2.8Zm2.5-4.3a.7.7,0,0,1-.7-.7c-.1-.4.2-.7.6-.8a7.6,7.6,0,0,0,2.1-.3.6.6,0,0,1,0-.8,26.8,26.8,0,0,0,1.8-3.3.8.8,0,0,1,1-.3.7.7,0,0,1,.3.9c-.5,1.1-1.1,2.1-1.7,3.2h.1a.7.7,0,0,1,.9.5.8.8,0,0,1-.4.9,18.9,18.9,0,0,1-4,.8Zm-3.9-.1h-.1a15.5,15.5,0,0,1-3.9-.9.8.8,0,0,1-.4-.9.7.7,0,0,1,.9-.5,15.8,15.8,0,0,0,3.6.9.6.6,0,0,1,.6.8C158.5,117.3,158.2,117.5,157.8,117.5Zm-41.3-1.6a.7.7,0,0,1-.6-.3l-1.9-3.5a.7.7,0,0,1,.3-.9.7.7,0,0,1,1,.3c.5,1.1,1.2,2.2,1.8,3.3a.8.8,0,0,1-.2,1Zm52.5-.6a.5.5,0,0,1-.6-.4.6.6,0,0,1,.3-.9,28.2,28.2,0,0,0,3.1-2.1.8.8,0,0,1,.9,1.2,23.9,23.9,0,0,1-3.4,2.1Zm-18.5-.2h-.3a19,19,0,0,1-3.3-2.2.7.7,0,1,1,.9-1.1,16.9,16.9,0,0,0,3.1,2.1.7.7,0,0,1,.3.9A.8.8,0,0,1,150.5,115.1Zm24.6-4.4-.5-.2a.8.8,0,0,1,0-1.1,22.6,22.6,0,0,0,2.3-2.9.7.7,0,0,1,1-.1c.4.2.4.6.2,1a24.8,24.8,0,0,1-2.5,3A.5.5,0,0,1,175.1,110.7Zm-30.4-.5a.6.6,0,0,1-.6-.3,13.7,13.7,0,0,1-2-3.5.8.8,0,0,1,.4-.9.7.7,0,0,1,1,.4,14.1,14.1,0,0,0,1.7,3.2.7.7,0,0,1-.1,1Zm22.8-1h-.2a.8.8,0,0,1-.5-.9,11.3,11.3,0,0,0,.6-3.6.8.8,0,1,1,1.5.1,17.8,17.8,0,0,1-.7,3.9A.9.9,0,0,1,167.5,109.2Zm12-4.8h-.3a.7.7,0,0,1-.3-1l1.5-3.4a.7.7,0,1,1,1.3.5,27.5,27.5,0,0,1-1.5,3.6A1,1,0,0,1,179.5,104.4ZM142,103.1a.7.7,0,0,1-.7-.7v-.6a13.2,13.2,0,0,1,.4-3.4.7.7,0,0,1,.8-.5c.4.1.7.4.6.8a11,11,0,0,0-.4,3.1v.6c.1.4-.3.7-.7.7Zm25.8-1.6a.7.7,0,0,1-.7-.6,17.5,17.5,0,0,0-1.1-3.5.8.8,0,1,1,1.4-.6,19,19,0,0,1,1.1,3.9.6.6,0,0,1-.5.8Zm-24.1-5.8h-.3a.7.7,0,0,1-.3-1,14.6,14.6,0,0,1,2.2-3.3.7.7,0,0,1,1-.1.8.8,0,0,1,.1,1,21.1,21.1,0,0,0-2.1,3.1A.7.7,0,0,1,143.7,95.7Zm21.2-1.3a.9.9,0,0,1-.6-.3,13.4,13.4,0,0,0-2.3-2.9.8.8,0,0,1,.1-1,.7.7,0,0,1,1,0,19.9,19.9,0,0,1,2.5,3.1.7.7,0,0,1-.3,1Zm-16.2-4.5a.6.6,0,0,1-.6-.3.7.7,0,0,1,.1-1,11.8,11.8,0,0,1,3.7-1.9.8.8,0,0,1,.9.5.7.7,0,0,1-.5.9,13.7,13.7,0,0,0-3.2,1.6Zm10.8-.9h-.3a9.3,9.3,0,0,0-3.4-1.2.7.7,0,1,1,.2-1.4,12,12,0,0,1,3.9,1.3.7.7,0,0,1-.4,1.3Z" fill="#52d1bd"/><circle cx="182.9" cy="91.3" r="14.1" transform="translate(-21.3 100.3) rotate(-29.1)" fill="#232323" opacity="0.1"/><circle cx="185.9" cy="89.6" r="14.1" fill="#f4b545"/><path d="M188.4,85.6l.4-1.1,2.6.2-2,7.1c-.1.5-.2.8-.2.9s0,.3.1.4.1.1.2.1.9-.2,1.5-.6a5.9,5.9,0,0,0,1.7-1.8,7.7,7.7,0,0,0,.8-2.7,9.1,9.1,0,0,0-.3-2.3,6.2,6.2,0,0,0-1.2-1.9,5.2,5.2,0,0,0-2.1-1.4,8.2,8.2,0,0,0-2.8-.7,10.3,10.3,0,0,0-3.1.2,9.5,9.5,0,0,0-2.5,1.1,6.9,6.9,0,0,0-1.9,1.9,7.6,7.6,0,0,0-1.1,2.2,10.1,10.1,0,0,0-.5,2.5,6.8,6.8,0,0,0,2.3,5.8,7.6,7.6,0,0,0,3.1,1.6,13.4,13.4,0,0,0,4.2.5,13.9,13.9,0,0,0,3.3-.6,7.3,7.3,0,0,0,2.3-1.6h2.1a9,9,0,0,1-1.5,1.9,7.2,7.2,0,0,1-2.1,1.2,8.8,8.8,0,0,1-2.6.8h-3a15,15,0,0,1-4.5-.9,9.6,9.6,0,0,1-3.2-2.2,7.3,7.3,0,0,1-1.9-3,12.3,12.3,0,0,1-.4-3.9,12.4,12.4,0,0,1,1-3.9,9.3,9.3,0,0,1,2.3-3.1,10,10,0,0,1,3.5-2,10.2,10.2,0,0,1,4.3-.4,7.8,7.8,0,0,1,3.5.8,7.1,7.1,0,0,1,2.7,1.8,6.1,6.1,0,0,1,1.5,2.6,6.9,6.9,0,0,1,.4,3.2,7.7,7.7,0,0,1-.7,2.6,6.7,6.7,0,0,1-3.8,3.8,5.9,5.9,0,0,1-2.7.4,2.1,2.1,0,0,1-1.2-.4,1.5,1.5,0,0,1-.6-.9,4,4,0,0,1-2.1.9,4.2,4.2,0,0,1-2.2-.3,4.1,4.1,0,0,1-1.6-1.6,4.5,4.5,0,0,1-.5-2.6,8.5,8.5,0,0,1,.9-3.1,7,7,0,0,1,2.1-2.4,4.6,4.6,0,0,1,3-.8A2.8,2.8,0,0,1,188.4,85.6Zm-5.9,4.8a3.4,3.4,0,0,0,.4,1.9,1.7,1.7,0,0,0,1.3.8,2.3,2.3,0,0,0,1.7-.7,5.7,5.7,0,0,0,1.2-1.8,10.4,10.4,0,0,0,.6-2.2,3.1,3.1,0,0,0-.1-1,1.9,1.9,0,0,0-.3-.8c-.2-.2-.3-.4-.6-.5s-.4-.2-.7-.3a2.7,2.7,0,0,0-1.7.6,4.7,4.7,0,0,0-1.2,1.8A7.9,7.9,0,0,0,182.5,90.4Z" fill="#fff"/><path d="M144.5,11.6l1.6-.8a.4.4,0,0,1,.6.5l-.2,1.7c-.1.1,0,.3.1.4l1.2,1.2a.5.5,0,0,1-.2.8l-1.7.2-.4.3-.8,1.5c-.1.4-.6.4-.8,0l-.8-1.5-.3-.3-1.7-.2c-.4-.1-.6-.5-.3-.8l1.3-1.2a.6.6,0,0,0,.1-.4l-.3-1.7a.5.5,0,0,1,.7-.5l1.5.8Z" fill="#4786d1"/><path d="M20.8,134a4.1,4.1,0,1,1,0-8.1,4.1,4.1,0,0,1,0,8.1Zm0-7a3,3,0,1,0,2.9,2.9A2.9,2.9,0,0,0,20.8,127Z" fill="#4786d1"/><circle cx="20.8" cy="129.9" r="2.1" fill="#4786d1"/><circle cx="104.4" cy="152.2" r="1.9" fill="#4786d1"/><circle cx="73.5" cy="4.5" r="1.9" fill="#4786d1"/></g></g></svg>