<svg xmlns="http://www.w3.org/2000/svg" width="1043.23" height="775.83" viewBox="0 0 1043.23 775.83">
    <defs>
        <style>
            .cls-1 {
                fill: #ebf1f5;
            }
            .cls-2 {
                fill: #88c1e3;
            }
            .cls-3 {
                fill: #b5e3ff;
            }
            .cls-4 {
                fill: #93d0f5;
            }
            .cls-5 {
                fill: #fff;
            }
            .cls-6 {
                fill: #628296;
            }
            .cls-7 {
                fill: #344a57;
            }
        </style>
    </defs>
    <g id="Layer_2" data-name="Layer 2">
        <g id="Layer_1-2" data-name="Layer 1">
            <rect class="cls-1" x="113" y="263" width="272" height="26" rx="12.22" />
            <rect class="cls-1" y="308" width="272" height="26" rx="12.22" />
            <rect class="cls-1" x="151" y="445" width="184" height="26" rx="12.22" />
            <rect class="cls-1" x="98" y="480" width="114" height="26" rx="12.22" />
            <rect class="cls-1" x="890" y="179" width="49" height="26" rx="12.22" />
            <path class="cls-2" d="M631.26,198.5v72.36H328.5V584.18a79.88,79.88,0,0,1-77.26-59.56L176,198.5Z" />
            <polygon class="cls-3" points="877.5 156.8 877.35 241.97 877.35 584.18 326.5 584.18 326.5 238.5 558.09 238.5 639.8 156.8 877.5 156.8" />
            <path class="cls-4" d="M864.37,273.94a99.87,99.87,0,0,1,13,3.32V253.9c-2.92-.78-5.88-1.44-8.9-2a120.77,120.77,0,1,0,8.9,235.54V464.05a98.37,98.37,0,1,1-13-190.11Z" />
            <circle class="cls-2" cx="614" cy="412" r="104.5" />
            <path class="cls-5" d="M581,455a10,10,0,0,1-7.07-17.07l66-66a10,10,0,0,1,14.14,14.14l-66,66A10,10,0,0,1,581,455Z" />
            <path class="cls-5" d="M647,455a10,10,0,0,1-7.07-2.93l-66-66a10,10,0,0,1,14.14-14.14l66,66A10,10,0,0,1,647,455Z" />
            <polygon class="cls-6" points="935.2 435.64 919.85 446.2 967.04 514.85 982.48 504.23 935.2 435.64" />
            <polygon class="cls-7" points="972.3 470.34 938.87 493.32 1009.63 596.24 1043.23 573.13 972.3 470.34" />
            <path class="cls-7" d="M884.45,233.9a120.77,120.77,0,1,0,96.76,140.74A120.78,120.78,0,0,0,884.45,233.9Zm-39.9,215.47a98.36,98.36,0,1,1,114.63-78.81A98.35,98.35,0,0,1,844.55,449.37Z" />
            <ellipse class="cls-1" cx="581" cy="713.5" rx="261" ry="62.33" />            
        </g>
    </g>
</svg>
